<?xml version="1.0" encoding="UTF-8" standalone="no"?>
<svg width="412px" height="410px" viewBox="0 0 412 410" version="1.1" xmlns="http://www.w3.org/2000/svg" xmlns:xlink="http://www.w3.org/1999/xlink" xmlns:sketch="http://www.bohemiancoding.com/sketch/ns">
    <!-- Generator: Sketch 3.4.4 (17249) - http://www.bohemiancoding.com/sketch -->
    <title>FAK_EI_RGB</title>
    <desc>Created with Sketch.</desc>
    <defs></defs>
    <g id="TUM_Fakultätszeichen" stroke="none" stroke-width="1" fill="none" fill-rule="evenodd" sketch:type="MSPage">
        <g id="Blau---BASIS-Konstruktion" sketch:type="MSLayerGroup" transform="translate(-4909.000000, -40.000000)" fill="#0065BD">
            <path d="M5228,249 C5214.14276,285.854501 5200.7506,321 5178,321 C5155.1037,321 5142.27936,287.17576 5129,251 C5112.76675,209.332722 5094.72127,161.739569 5056,162 C5015.06078,161.739569 4993.95463,212.67064 4975,258 C4962.66933,288.21886 4950.67594,317.217026 4935,321 C4925.49812,296.994804 4920,271.16766 4920,244 C4920,136.107137 5007.74841,48 5116,48 C5194.0753,48 5261.92244,94.7169494 5293,162 C5260.30208,164.799328 5244.05699,207.413419 5228,249 L5228,249 Z M5319,245 C5318.75756,131.971467 5227.37119,40 5115,40 C5002.64266,40 4911.24244,131.971467 4911,245 C4911.24244,335.731997 4971.19312,416.046875 5057,442 C5049.52627,441.657948 4909,441.657948 4909,442 L4909,450 L5066,450 L5066,435 L5063,435 C5006.10321,418.762568 4961.06061,378.472826 4938,327 C4955.1223,322.069973 4967.02661,293.422894 4981,261 C4998.43462,217.439198 5018.65811,168.487092 5055,168 C5089.87636,168.487092 5106.34861,212.035666 5122,254 C5136.64924,292.113791 5150.22846,327.960938 5177,328 C5204.39309,327.960938 5218.526,290.832541 5233,252 C5248.88201,211.060802 5264.81441,169.266984 5295,169 C5304.99839,192.050951 5310.46607,217.884851 5310,245 C5310.46607,333.072011 5251.62277,411.005435 5167,435 L5164,435 L5164,450 L5321,450 L5321,442 C5321,441.657948 5180.44604,441.657948 5173,442 C5258.80688,416.046875 5318.75756,335.731997 5319,245 Z" id="FAK_EI_RGB" sketch:type="MSShapeGroup"></path>
        </g>
    </g>
</svg>